<svg width="44" height="44" viewBox="0 0 44 44" fill="none" xmlns="http://www.w3.org/2000/svg">
<path d="M21.6172 18.2549C23.7685 18.2549 24.9627 20.1035 24.9629 22.0117C24.9629 27.0643 18.2715 27.063 18.2715 22.0117C18.2717 20.1035 19.4658 18.2549 21.6172 18.2549Z" fill="#2D2D2D"/>
<path fill-rule="evenodd" clip-rule="evenodd" d="M22 10C28.6274 10 34 15.3726 34 22C34 28.6274 28.6274 34 22 34C15.3726 34 10 28.6274 10 22C10 15.3726 15.3726 10 22 10ZM21.6006 16C20.1524 16.0074 18.8363 16.4944 17.6455 17.5557C16.9896 18.1473 16.4909 18.8195 16.1611 19.5596C15.8342 20.2964 15.667 21.1227 15.667 22.0107C15.667 22.84 15.8146 23.6175 16.1045 24.3203C16.3948 25.0228 16.8361 25.6736 17.418 26.2529C17.9995 26.8331 18.6504 27.2742 19.3506 27.5635C20.0358 27.8463 20.7904 27.9932 21.5918 27.999L21.6426 28C22.444 27.9941 23.1985 27.8463 23.8838 27.5635C24.2588 27.4085 24.6195 27.2099 24.9629 26.9697V27.6982H27.4648V16.3018H24.9629V17.0596C23.9412 16.3421 22.833 16.0062 21.6338 16H21.6006Z" fill="#2D2D2D"/>
</svg>
