<svg width="44" height="44" viewBox="0 0 44 44" fill="none" xmlns="http://www.w3.org/2000/svg">
<path fill-rule="evenodd" clip-rule="evenodd" d="M22 14C19.7906 14 18 15.7906 18 18C18 20.2094 19.7906 22 22 22C24.2094 22 26 20.2094 26 18C26 15.7906 24.2094 14 22 14ZM22 24C18.6862 24 16 21.3142 16 18C16 14.6858 18.6862 12 22 12C25.3138 12 28 14.6858 28 18C28 21.3142 25.3138 24 22 24ZM14.9492 30.0208C16.3096 28.2328 18.9204 27 22.0005 27C25.0444 27 27.6302 28.2045 29.0033 29.9591C29.0033 30.0208 14.9492 30 14.9492 30.0208ZM12 32H32C31.4466 27.9939 27.1814 25 22.0005 25C16.8186 25 12.5534 27.9939 12 32Z" fill="#666666"/>
</svg>
