<svg width="44" height="44" viewBox="0 0 44 44" fill="none" xmlns="http://www.w3.org/2000/svg">
<path d="M22.4053 30.0791C22.4077 30.0801 22.4096 30.0814 22.4111 30.082C22.4098 30.0814 22.4081 30.0809 22.4062 30.0801C22.4044 30.0792 22.4025 30.0782 22.4004 30.0771C22.4027 30.0781 22.4044 30.0787 22.4053 30.0791ZM26.4453 14C27.8303 13.9984 28.9538 14.4752 29.7295 15.2529C30.5048 16.0304 30.9982 17.174 31 18.626C31.0048 22.0555 28.7894 24.8954 26.3682 26.957C25.1752 27.9728 23.9764 28.7605 23.0732 29.2949C22.6369 29.5531 22.2716 29.7501 22.0137 29.8838C21.7555 29.75 21.3906 29.553 20.9541 29.2949C20.0496 28.7602 18.849 27.9713 17.6533 26.9551C15.3027 24.9572 13.1432 22.2297 13.0068 18.9434L13 18.624C12.9988 17.1741 13.4915 16.0363 14.2666 15.2627C15.0429 14.488 16.169 14.0123 17.5566 14.0107C18.1104 14.01 18.7572 14.2062 19.4238 14.5596C20.0003 14.8651 20.5441 15.2634 20.9893 15.6689L21.1738 15.8428L21.2891 15.958L21.998 16.665L22.7041 15.9561L22.8154 15.8438C23.2883 15.3793 23.9077 14.9065 24.5703 14.5547C25.1572 14.2431 25.7286 14.0527 26.2334 14.0098L26.4453 14Z" stroke="#666666" stroke-width="2"/>
</svg>
