<svg width="18" height="18" viewBox="0 0 18 18" fill="none" xmlns="http://www.w3.org/2000/svg">
<path d="M16 0C17.1046 0 18 0.895431 18 2V16C18 17.1046 17.1046 18 16 18H2C0.895431 18 8.05332e-09 17.1046 0 16V8.39258C0.559562 8.65847 1.16422 8.84361 1.7998 8.93457V16.2012H16.2002V1.80078H8.93555C8.84461 1.16485 8.65862 0.559837 8.39258 0H16Z" fill="white"/>
<path d="M8.09961 14.4004H3.59961V9H8.09961V14.4004Z" fill="white"/>
<path d="M14.4004 14.4004H9V4.5H14.4004V14.4004Z" fill="white"/>
<path d="M8.09961 8.09961H5.94629C6.82784 7.56844 7.56851 6.82789 8.09961 5.94629V8.09961Z" fill="white"/>
<path fill-rule="evenodd" clip-rule="evenodd" d="M4 0C6.20914 0 8 1.79086 8 4C8 6.20914 6.20914 8 4 8C1.79086 8 0 6.20914 0 4C0 1.79086 1.79086 0 4 0ZM3.2002 3.19922H1.59961V4.79883H3.2002V6.39941H4.7998V4.79883H6.40039V3.19922H4.7998V1.59961H3.2002V3.19922Z" fill="white"/>
</svg>
