<svg width="44" height="44" viewBox="0 0 44 44" fill="none" xmlns="http://www.w3.org/2000/svg">
<path d="M27 12C31.9706 12 36 16.0294 36 21C36 23.3799 35.074 25.542 33.5654 27.1514L36.4141 30L35 31.4141L32.041 28.4551C30.6027 29.4296 28.8682 30 27 30C22.0294 30 18 25.9706 18 21C18 16.0294 22.0294 12 27 12ZM15.2031 26C15.5688 26.7151 16.0077 27.3862 16.5146 28H8V26H15.2031ZM27 14C23.134 14 20 17.134 20 21C20 24.866 23.134 28 27 28C30.866 28 34 24.866 34 21C34 17.134 30.866 14 27 14ZM14.0469 20C14.0172 20.3294 14 20.6628 14 21C14 21.3372 14.0172 21.6706 14.0469 22H8V20H14.0469ZM16.5146 14C16.0077 14.6138 15.5688 15.2849 15.2031 16H8V14H16.5146Z" fill="#666666"/>
</svg>
